PathFileType	4	(X/Y/Z)	walk-thru1-2-TP.trc
DataRate	CameraRate	NumFrames	NumMarkers	Units	OrigDataRate	OrigDataStartFrame	OrigNumFrames
120.00	120.00	       4	60	mm	120.00	63	       502
Frame#	Time	Top.Head			Front.Head			Rear.Head			Jaw			C7			R.Clavicle			L.Clavicle			R.Shoulder			L.Shoulder			R.Scapula			L.Scapula			R.Scap.Inf			R.Biceps.Lateral			R.Elbow			R.Elbow.Medial			R.Forearm			R.Ulna			R.Radius			R.Wrist			R.Thumb.M1			R.Thumb.M2			R.Thumb.M3			R.Finger3.M1			R.Finger3.M2			R.Finger3.M3			L.Biceps.Lateral			L.Elbow			L.Elbow.Medial			L.Forearm			L.Ulna			L.Radius			L.Wrist			L.Thumb.M1			L.Thumb.M2			L.Thumb.M3			L.Finger3.M1			L.Finger3.M2			L.Finger3.M3			V.Sacral			R.ASIS			L.ASIS			R.Thigh			R.Thigh.Front			R.Knee			R.Knee.Medial			R.Shank			R.Ankle			R.Ankle.Medial			R.Heel			R.Toe			R.MedFoot			L.Thigh			L.Knee			L.Knee.Medial			L.Shank			L.Ankle			L.Ankle.Medial			L.Heel			L.Toe			L.MedFoot			V_mid_ASIS			V_R_Knee_JC			V_L_Knee_JC			V_R_Elbow_JC			V_L_Elbow_JC			V_R_Ankle_JC			V_L_Ankle_JC			V_R_Wrist_JC			V_L_Wrist_JC			V_R_ScaTrpz_1stMC_JC			V_R_1stMC_1stPP_JC			V_R_1stPP_1stDP_JC			V_R_LunCap_3rdMC_JC			V_R_3rdMC_3rdPP_JC			V_R_3rdPP_3rdMP_JC			V_R_3rdMP_3rdDP_JC			V_L_ScaTrpz_1stMC_JC			V_L_1stMC_1stPP_JC			V_L_1stPP_1stDP_JC			V_L_LunCap_3rdMC_JC			V_L_3rdMC_3rdPP_JC			V_L_3rdPP_3rdMP_JC			V_L_3rdMP_3rdPP_JC			V_ROOT_JC			V_R_Hip_JC			V_L_Hip_JC			V_R_GlenHum_JC			V_L_GlenHum_JC			V_ForeHead_Ctr			V_Vertex			V_Sagit_Lambdoid_Suture			V_R_FrontoTemp			V_L_FrontoTemporal			V_R_ParietalOccip			V_L_ParietalOcciptal			V_R_Temporal			V_L_Temporal			V_mid_FrontRearHead			V_mid_RLGlenHumCtrs			V_C7_vert			V_C1_vert			V_Mid_Hip			
		X1	Y1	Z1	X2	Y2	Z2	X3	Y3	Z3	X4	Y4	Z4	X5	Y5	Z5	X6	Y6	Z6	X7	Y7	Z7	X8	Y8	Z8	X9	Y9	Z9	X10	Y10	Z10	X11	Y11	Z11	X12	Y12	Z12	X13	Y13	Z13	X14	Y14	Z14	X15	Y15	Z15	X16	Y16	Z16	X17	Y17	Z17	X18	Y18	Z18	X19	Y19	Z19	X20	Y20	Z20	X21	Y21	Z21	X22	Y22	Z22	X23	Y23	Z23	X24	Y24	Z24	X25	Y25	Z25	X26	Y26	Z26	X27	Y27	Z27	X28	Y28	Z28	X29	Y29	Z29	X30	Y30	Z30	X31	Y31	Z31	X32	Y32	Z32	X33	Y33	Z33	X34	Y34	Z34	X35	Y35	Z35	X36	Y36	Z36	X37	Y37	Z37	X38	Y38	Z38	X39	Y39	Z39	X40	Y40	Z40	X41	Y41	Z41	X42	Y42	Z42	X43	Y43	Z43	X44	Y44	Z44	X45	Y45	Z45	X46	Y46	Z46	X47	Y47	Z47	X48	Y48	Z48	X49	Y49	Z49	X50	Y50	Z50	X51	Y51	Z51	X52	Y52	Z52	X53	Y53	Z53	X54	Y54	Z54	X55	Y55	Z55	X56	Y56	Z56	X57	Y57	Z57	X58	Y58	Z58	X59	Y59	Z59	X60	Y60	Z60	

63	0.517	-437.92477	-24.99267	1769.70508	-341.80286	-37.77240	1645.16992	-572.29272	-20.28073	1701.95129	-438.92859	-31.54642	1473.24170	-668.90527	-34.76226	1575.81775	-562.73169	-148.17038	1493.51685	-570.52277	97.76073	1488.63721	-606.00159	-257.23633	1482.94348	-627.23462	198.01057	1491.37695	-727.73633	-136.12486	1484.65186	-744.21881	56.76340	1482.98804	-758.23895	-139.22780	1396.47607	-639.14923	-291.78381	1343.21570	-703.79462	-325.84576	1161.38574	-706.82056	-226.83000	1152.09412	-609.12292	-309.95895	1095.71021	-667.50323	-321.40167	958.56165	-561.10046	-295.52032	926.09808	-551.71259	-341.95468	898.43408	-545.62006	-286.28888	877.74725	-555.53497	-261.09140	831.81866	-570.74402	-259.44449	781.02631	-540.85663	-353.71625	814.06555	-589.66187	-321.90335	757.10132	-623.38220	-277.96021	794.53424	-687.57416	224.23262	1347.06421	-756.42657	233.54910	1178.99927	-764.94806	137.70265	1155.56311	-674.66626	237.66238	1093.40515	-744.08801	260.07974	992.39703	-650.72992	243.68466	931.12695	-674.71039	284.62766	899.77228	-630.23376	242.34421	873.95532	-616.11078	217.03755	827.99658	-609.26111	220.69226	777.50842	-654.35718	296.87152	798.58020	-658.49689	265.67285	740.30707	-667.56342	206.24220	741.71552	-793.50140	-37.33992	1125.37878	-587.19769	-211.69336	1058.74902	-612.96661	139.36969	1071.62512	-574.00238	-192.67992	683.88098	-498.40863	-95.11152	594.78644	-533.88647	-157.67523	530.69635	-555.93732	-47.70623	529.95435	-529.76642	-112.13261	313.43970	-618.24890	-151.30830	84.76280	-613.74835	-48.29186	106.11773	-685.74976	-110.67425	49.28589	-451.06320	-96.96030	41.31296	-517.45404	-65.50777	78.65483	-607.79889	153.59372	681.81104	-599.42151	147.17046	527.65906	-599.13940	35.97581	506.83939	-716.47784	100.08331	346.87079	-949.57391	110.69997	225.57249	-891.09290	22.15441	212.99248	-994.27435	38.22110	230.32982	-859.99615	97.15736	67.92161	-860.31982	62.01657	139.80614																																																																																																																															
64	0.525	-432.01367	-25.41940	1770.13232	-336.41260	-39.16678	1645.05371	-567.14673	-20.86916	1701.44312	-432.37689	-32.53693	1473.39160	-663.79791	-36.69955	1576.68640	-556.58948	-148.41530	1494.34424	-563.72931	95.06702	1489.56213	-600.07117	-257.98688	1482.94165	-621.25806	197.01770	1490.35193	-721.68365	-137.30411	1485.11218	-738.47174	55.87577	1483.79993	-752.45618	-141.39149	1395.94067	-632.66797	-291.91220	1343.13403	-695.19879	-325.92902	1161.39148	-699.42780	-229.52777	1152.97302	-601.47565	-311.47391	1095.67883	-659.89594	-322.72308	959.83032	-552.21661	-297.23340	928.78253	-542.41968	-341.42258	898.71429	-538.17627	-287.57059	881.09406	-548.82556	-259.95871	834.95557	-563.09485	-259.81018	784.58740	-532.44696	-352.20627	814.39807	-581.92706	-319.18732	759.93317	-620.69275	-280.30493	797.81519	-684.09509	223.42166	1347.48486	-752.10858	232.96800	1179.90552	-762.16034	136.32970	1156.50281	-670.32910	235.87294	1094.11890	-740.59338	257.54922	992.67859	-646.97437	240.77428	931.21228	-670.31970	283.12756	900.54913	-626.92267	240.82571	874.20996	-611.94995	213.85799	828.58484	-606.29169	218.55769	778.75098	-651.94586	295.55804	799.03094	-655.10663	263.65192	740.65778	-664.05292	205.05629	743.34583	-786.38678	-38.00111	1125.64038	-581.69342	-212.29814	1059.43823	-606.93549	138.67395	1072.37646	-570.34320	-193.54947	683.85822	-495.61227	-95.10998	593.74628	-531.58282	-158.23323	529.90466	-553.19250	-49.17029	530.36780	-528.85425	-112.44530	312.81110	-618.31091	-151.31252	84.45790	-613.95532	-48.47779	106.18351	-686.22510	-110.77483	49.45616	-450.98300	-96.99055	41.34667	-517.45404	-65.50777	78.65483	-596.03503	154.20659	683.00555	-586.48468	146.14104	529.05090	-586.03790	34.62698	509.28314	-705.26599	99.72819	350.29263	-939.22772	109.44962	228.51860	-879.99878	22.93231	215.52173	-983.27966	37.34562	232.43767	-848.57489	99.80739	72.42724	-850.08673	63.00752	142.88803																																																																																																																															
65	0.533	-425.88278	-27.01560	1770.50623	-330.68088	-39.42499	1644.82410	-559.75531	-21.54715	1701.42236	-427.71564	-33.23372	1474.48145	-657.10175	-36.27824	1576.47156	-551.14612	-149.46860	1495.45642	-559.17804	96.10433	1490.06848	-593.54639	-258.44751	1484.08350	-616.07068	196.85609	1490.46570	-716.37543	-137.47520	1486.09009	-732.56158	55.47611	1484.54858	-746.40979	-142.18175	1397.03870	-625.10400	-294.10748	1343.75146	-688.35352	-328.37811	1161.29663	-693.58521	-230.91977	1153.19275	-594.44659	-315.22720	1096.51086	-652.10931	-326.69318	960.75848	-543.38300	-300.56067	929.85229	-533.81250	-343.07217	899.76111	-530.27850	-287.89999	883.68964	-540.07043	-257.80130	838.39569	-554.18512	-257.59003	788.09747	-523.68158	-350.70795	814.57898	-573.17596	-315.67767	761.22205	-609.30804	-276.09540	797.25916	-679.09210	222.76967	1348.66492	-748.76532	231.30115	1180.32288	-757.36713	135.66086	1157.34753	-667.92566	235.01857	1094.65918	-736.05768	255.98074	993.95349	-644.44928	238.87238	931.54785	-668.34436	281.85556	901.30988	-623.87402	238.72688	875.31287	-610.14722	213.22427	829.22559	-601.51239	216.49385	779.16522	-649.52716	293.41486	799.98785	-652.52545	260.73083	742.26208	-659.63898	202.13615	743.75458	-783.08942	-38.38868	1126.57507	-575.94427	-213.71274	1059.82031	-601.65277	138.33081	1072.46228	-566.73047	-193.61540	684.11798	-492.88708	-95.12754	593.22113	-529.16138	-159.63730	529.41589	-550.72638	-48.19491	529.99408	-528.39490	-112.91261	312.77658	-618.28589	-151.63216	84.48898	-613.60199	-48.39838	106.34031	-686.45294	-111.23021	49.55907	-451.34875	-96.90058	41.31585	-517.40094	-65.59990	78.58476	-587.96326	152.66040	683.96069	-576.19696	146.79105	530.49756	-576.52704	33.80381	509.90335	-693.56860	100.76091	351.73669	-927.27051	109.70206	231.56316	-868.16809	22.71054	216.66243	-971.63275	37.42129	233.47943	-836.35681	102.67118	76.97860	-838.52258	64.24303	144.91823																																																																																																																															
66	0.542	-419.66568	-27.40575	1770.53442	-324.94128	-39.94341	1645.20374	-555.03510	-21.92588	1702.56104	-422.27094	-33.03572	1474.01294	-650.66711	-38.05702	1577.62561	-544.29077	-148.50397	1495.63501	-555.43225	97.13670	1490.51404	-587.28314	-258.73099	1484.58191	-610.79492	194.83524	1492.06030	-709.74518	-138.47765	1486.78857	-726.32312	54.80964	1485.19861	-740.63831	-142.37633	1397.68225	-618.80164	-294.49728	1343.70300	-680.95758	-330.55414	1163.74207	-689.16272	-232.18738	1154.02417	-586.89935	-314.64679	1097.72485	-643.19305	-327.70868	961.18976	-535.46973	-300.23563	931.61279	-525.62042	-343.63065	900.98096	-520.41406	-288.62787	885.78857	-532.15820	-257.04681	841.58362	-547.31348	-256.15100	790.81134	-512.88843	-349.39655	815.87122	-563.73206	-311.22543	763.32727	-602.19348	-274.84531	798.30859	-674.15955	221.35799	1348.37854	-744.67786	229.85178	1181.55737	-754.41962	133.38004	1158.55115	-664.95380	233.14337	1095.29346	-733.40027	254.27472	994.22498	-641.08301	238.93742	931.81958	-664.42645	278.63525	901.28595	-619.36163	237.62604	876.79364	-604.81714	211.73029	830.02368	-597.89362	215.63484	779.46991	-645.29938	291.69992	800.47345	-649.42816	258.90555	742.34363	-657.45483	200.34827	743.01093	-776.43738	-38.61868	1126.71387	-570.17706	-213.77844	1060.32886	-596.27362	139.31056	1073.66052	-563.73743	-193.18401	684.01892	-491.08481	-96.05914	593.00287	-527.11340	-160.51054	529.71454	-549.28278	-49.29231	529.97266	-527.22919	-113.05383	311.83896	-618.26111	-152.02371	84.46991	-613.60199	-48.39838	106.34031	-686.60315	-110.63737	50.00505	-451.34875	-96.90058	41.31585	-517.37091	-65.33458	78.43441	-577.65607	152.12877	685.41534	-565.16223	147.22325	532.43945	-565.23895	34.60104	512.19226	-681.36572	99.61449	352.93915	-914.81482	109.84561	232.99261	-855.84607	24.26022	217.88768	-960.57806	37.17994	234.04208	-823.22876	106.14133	78.39111	-824.84967	66.57626	147.40527																																																																																																																															
